<svg width="500" height="400" viewBox="0 0 500 400" fill="none" xmlns="http://www.w3.org/2000/svg">
  <!-- Robot Head -->
  <rect x="150" y="50" width="200" height="180" rx="20" fill="#6C63FF" />
  
  <!-- Robot Eyes -->
  <circle cx="200" cy="100" r="20" fill="white" />
  <circle cx="300" cy="100" r="20" fill="white" />
  <circle cx="200" cy="100" r="10" fill="#1A1A2E" />
  <circle cx="300" cy="100" r="10" fill="#1A1A2E" />
  
  <!-- Robot Mouth -->
  <rect x="190" y="150" width="120" height="40" rx="20" fill="white" />
  <rect x="200" y="165" width="100" height="10" rx="5" fill="#1A1A2E" />
  
  <!-- Robot Antenna -->
  <rect x="240" y="30" width="20" height="20" rx="10" fill="#FF6584" />
  <rect x="245" y="20" width="10" height="10" rx="5" fill="#FF6584" />
  
  <!-- Robot Body -->
  <rect x="175" y="230" width="150" height="100" rx="10" fill="#4A45B1" />
  
  <!-- Robot Arms -->
  <rect x="100" y="250" width="75" height="20" rx="10" fill="#4A45B1" />
  <rect x="325" y="250" width="75" height="20" rx="10" fill="#4A45B1" />
  <circle cx="100" cy="260" r="15" fill="#6C63FF" />
  <circle cx="400" cy="260" r="15" fill="#6C63FF" />
  
  <!-- Robot Legs -->
  <rect x="200" y="330" width="30" height="60" rx="10" fill="#4A45B1" />
  <rect x="270" y="330" width="30" height="60" rx="10" fill="#4A45B1" />
  <rect x="190" y="380" width="50" height="15" rx="7.5" fill="#6C63FF" />
  <rect x="260" y="380" width="50" height="15" rx="7.5" fill="#6C63FF" />
  
  <!-- Chat Bubbles -->
  <ellipse cx="100" cy="150" rx="60" ry="40" fill="white" stroke="#6C63FF" stroke-width="2" />
  <ellipse cx="400" cy="180" rx="60" ry="40" fill="white" stroke="#6C63FF" stroke-width="2" />
  
  <!-- Chat Bubble Content -->
  <rect x="70" y="140" width="60" height="5" rx="2.5" fill="#6C63FF" />
  <rect x="80" y="150" width="40" height="5" rx="2.5" fill="#6C63FF" />
  <rect x="360" y="170" width="80" height="5" rx="2.5" fill="#6C63FF" />
  <rect x="370" y="180" width="60" height="5" rx="2.5" fill="#6C63FF" />
  <rect x="380" y="190" width="40" height="5" rx="2.5" fill="#6C63FF" />
</svg> 