<svg width="100" height="100" viewBox="0 0 100 100" fill="none" xmlns="http://www.w3.org/2000/svg">
  <!-- Background Circle -->
  <circle cx="50" cy="50" r="50" fill="#6C63FF" />
  
  <!-- Robot Face -->
  <circle cx="35" cy="40" r="8" fill="white" />
  <circle cx="65" cy="40" r="8" fill="white" />
  <circle cx="35" cy="40" r="4" fill="#1A1A2E" />
  <circle cx="65" cy="40" r="4" fill="#1A1A2E" />
  
  <!-- Robot Mouth -->
  <rect x="35" y="60" width="30" height="10" rx="5" fill="white" />
  <rect x="38" y="63" width="24" height="4" rx="2" fill="#1A1A2E" />
  
  <!-- Robot Antenna -->
  <rect x="48" y="10" width="4" height="10" rx="2" fill="#FF6584" />
  <circle cx="50" cy="8" r="3" fill="#FF6584" />
  
  <!-- Circuit Pattern -->
  <line x1="20" y1="25" x2="30" y2="25" stroke="white" stroke-width="1.5" opacity="0.7" />
  <line x1="70" y1="25" x2="80" y2="25" stroke="white" stroke-width="1.5" opacity="0.7" />
  <line x1="20" y1="75" x2="30" y2="75" stroke="white" stroke-width="1.5" opacity="0.7" />
  <line x1="70" y1="75" x2="80" y2="75" stroke="white" stroke-width="1.5" opacity="0.7" />
  
  <circle cx="20" cy="25" r="2" fill="white" opacity="0.7" />
  <circle cx="80" cy="25" r="2" fill="white" opacity="0.7" />
  <circle cx="20" cy="75" r="2" fill="white" opacity="0.7" />
  <circle cx="80" cy="75" r="2" fill="white" opacity="0.7" />
</svg> 