<svg width="100" height="100" viewBox="0 0 100 100" fill="none" xmlns="http://www.w3.org/2000/svg">
  <pattern id="pattern" patternUnits="userSpaceOnUse" width="100" height="100">
    <!-- Dots -->
    <circle cx="10" cy="10" r="1.5" fill="#6C63FF" opacity="0.5" />
    <circle cx="30" cy="10" r="1.5" fill="#6C63FF" opacity="0.5" />
    <circle cx="50" cy="10" r="1.5" fill="#6C63FF" opacity="0.5" />
    <circle cx="70" cy="10" r="1.5" fill="#6C63FF" opacity="0.5" />
    <circle cx="90" cy="10" r="1.5" fill="#6C63FF" opacity="0.5" />
    
    <circle cx="10" cy="30" r="1.5" fill="#6C63FF" opacity="0.5" />
    <circle cx="30" cy="30" r="1.5" fill="#6C63FF" opacity="0.5" />
    <circle cx="50" cy="30" r="1.5" fill="#6C63FF" opacity="0.5" />
    <circle cx="70" cy="30" r="1.5" fill="#6C63FF" opacity="0.5" />
    <circle cx="90" cy="30" r="1.5" fill="#6C63FF" opacity="0.5" />
    
    <circle cx="10" cy="50" r="1.5" fill="#6C63FF" opacity="0.5" />
    <circle cx="30" cy="50" r="1.5" fill="#6C63FF" opacity="0.5" />
    <circle cx="50" cy="50" r="1.5" fill="#6C63FF" opacity="0.5" />
    <circle cx="70" cy="50" r="1.5" fill="#6C63FF" opacity="0.5" />
    <circle cx="90" cy="50" r="1.5" fill="#6C63FF" opacity="0.5" />
    
    <circle cx="10" cy="70" r="1.5" fill="#6C63FF" opacity="0.5" />
    <circle cx="30" cy="70" r="1.5" fill="#6C63FF" opacity="0.5" />
    <circle cx="50" cy="70" r="1.5" fill="#6C63FF" opacity="0.5" />
    <circle cx="70" cy="70" r="1.5" fill="#6C63FF" opacity="0.5" />
    <circle cx="90" cy="70" r="1.5" fill="#6C63FF" opacity="0.5" />
    
    <circle cx="10" cy="90" r="1.5" fill="#6C63FF" opacity="0.5" />
    <circle cx="30" cy="90" r="1.5" fill="#6C63FF" opacity="0.5" />
    <circle cx="50" cy="90" r="1.5" fill="#6C63FF" opacity="0.5" />
    <circle cx="70" cy="90" r="1.5" fill="#6C63FF" opacity="0.5" />
    <circle cx="90" cy="90" r="1.5" fill="#6C63FF" opacity="0.5" />
    
    <!-- Larger Accent Dots -->
    <circle cx="20" cy="20" r="3" fill="#FF6584" opacity="0.3" />
    <circle cx="60" cy="20" r="3" fill="#FF6584" opacity="0.3" />
    <circle cx="20" cy="60" r="3" fill="#FF6584" opacity="0.3" />
    <circle cx="60" cy="60" r="3" fill="#FF6584" opacity="0.3" />
    
    <!-- Circuit-like Lines -->
    <line x1="20" y1="20" x2="60" y2="20" stroke="#6C63FF" stroke-width="0.5" opacity="0.3" />
    <line x1="60" y1="20" x2="60" y2="60" stroke="#6C63FF" stroke-width="0.5" opacity="0.3" />
    <line x1="60" y1="60" x2="20" y2="60" stroke="#6C63FF" stroke-width="0.5" opacity="0.3" />
    <line x1="20" y1="60" x2="20" y2="20" stroke="#6C63FF" stroke-width="0.5" opacity="0.3" />
    <line x1="20" y1="20" x2="60" y2="60" stroke="#6C63FF" stroke-width="0.5" opacity="0.3" />
    <line x1="60" y1="20" x2="20" y2="60" stroke="#6C63FF" stroke-width="0.5" opacity="0.3" />
  </pattern>
  
  <rect width="100" height="100" fill="url(#pattern)" />
</svg> 